<svg width="16" height="16" viewBox="0 0 16 16" fill="none" xmlns="http://www.w3.org/2000/svg">
<path d="M7.99967 1.33301C11.6817 1.33301 14.6663 4.31767 14.6663 7.99967C14.6663 11.6817 11.6817 14.6663 7.99967 14.6663C4.31767 14.6663 1.33301 11.6817 1.33301 7.99967C1.33301 4.31767 4.31767 1.33301 7.99967 1.33301ZM7.52834 5.64234L5.64234 7.52834C5.51736 7.65336 5.44715 7.8229 5.44715 7.99967C5.44715 8.17645 5.51736 8.34599 5.64234 8.47101L7.52834 10.357C7.65336 10.482 7.8229 10.5522 7.99967 10.5522C8.17645 10.5522 8.34599 10.482 8.47101 10.357L10.357 8.47101C10.482 8.34599 10.5522 8.17645 10.5522 7.99967C10.5522 7.8229 10.482 7.65336 10.357 7.52834L8.47101 5.64234C8.34599 5.51736 8.17645 5.44715 7.99967 5.44715C7.8229 5.44715 7.65336 5.51736 7.52834 5.64234Z" fill="#51A933"/>
</svg>
