<svg width="120" height="24" viewBox="0 0 120 24" fill="none" xmlns="http://www.w3.org/2000/svg">
<path d="M66 12C66 5.37258 60.6274 0 54 0C47.3726 0 42 5.37258 42 12C42 18.6274 47.3726 24 54 24C60.6274 24 66 18.6274 66 12ZM46.488 12C46.488 7.85124 49.8512 4.488 54 4.488C58.1488 4.488 61.512 7.85124 61.512 12C61.512 16.1488 58.1488 19.512 54 19.512C49.8512 19.512 46.488 16.1488 46.488 12Z" fill="#071220"/>
<path d="M24.0005 9.75H19.5005V7.44824L13.7222 13.2266L10.6772 10.1816L16.3599 4.5H14.2505V0H24.0005V9.75Z" fill="#51A933"/>
<path d="M12 4.48828C10.5143 4.48828 9.06151 4.92848 7.82617 5.75391C6.59098 6.5793 5.62811 7.75251 5.05957 9.125C4.491 10.4976 4.34296 12.0086 4.63281 13.4658C4.92271 14.9229 5.638 16.261 6.68848 17.3115C7.73896 18.362 9.07714 19.0773 10.5342 19.3672C11.9914 19.657 13.5024 19.509 14.875 18.9404C16.2475 18.3719 17.4207 17.409 18.2461 16.1738C19.0715 14.9385 19.5117 13.4857 19.5117 12H24C24 14.3734 23.2961 16.6936 21.9775 18.667C20.659 20.6403 18.7845 22.1787 16.5918 23.0869C14.3993 23.995 11.9867 24.2324 9.65918 23.7695C8.07269 23.454 6.57477 22.8213 5.25 21.9199V24H0V12L0.000976562 12.002C0.000731951 10.4332 0.306982 8.87164 0.913086 7.4082C1.82131 5.21554 3.35969 3.34103 5.33301 2.02246C7.3064 0.703884 9.62662 0 12 0V4.48828Z" fill="#071220"/>
<path d="M32.25 2.63379C32.369 2.53847 32.4895 2.44442 32.6123 2.35352C34.1203 1.23769 35.8689 0.490536 37.7178 0.172852C39.5667 -0.144826 42.75 0 43.875 1.5L41.25 4.875C40.1292 4.53232 39.6355 4.41287 38.4805 4.61133C37.3255 4.80978 36.2331 5.27658 35.291 5.97363C34.3489 6.67075 33.5832 7.57941 33.0557 8.62598C32.5282 9.67249 32.2539 10.8281 32.2539 12H32.25V24H27.75V0H32.25V2.63379Z" fill="#071220"/>
<path d="M91.5 0.375H95.25C95.4571 0.375 95.625 0.542893 95.625 0.75V23.25C95.625 23.4571 95.4571 23.625 95.25 23.625H91.5C91.2929 23.625 91.125 23.4571 91.125 23.25V0.75C91.125 0.542893 91.2929 0.375 91.5 0.375Z" fill="#071220" stroke="#071220" stroke-width="0.75"/>
<path d="M107.25 0C110.433 -2.0126e-10 113.485 1.26421 115.735 3.51465C117.986 5.76508 119.25 8.8174 119.25 12C119.25 15.1826 117.986 18.2349 115.735 20.4854C113.625 22.5952 110.811 23.8383 107.845 23.9854L107.25 24H100.5C100.086 24 99.75 23.6642 99.75 23.25V0.75C99.75 0.335786 100.086 6.4426e-08 100.5 0H107.25ZM107.25 4.5H104.25V19.5H107.25V19.5117C109.242 19.5117 111.153 18.7203 112.562 17.3115C113.97 15.9028 114.762 13.9923 114.762 12C114.762 10.0077 113.97 8.09725 112.562 6.68848C111.153 5.2797 109.242 4.48828 107.25 4.48828V4.5Z" fill="#071220"/>
<path d="M80.4295 23.5063L83.25 15.75L88.8626 1.017C89.0496 0.526096 88.687 0 88.1617 0H83.7832C83.464 0 83.1797 0.202088 83.0748 0.503611L77.9584 15.2134C77.7248 15.8849 76.7752 15.8849 76.5416 15.2134L71.4252 0.503611C71.3203 0.202088 71.036 0 70.7168 0H66.3383C65.813 0 65.4504 0.526096 65.6374 1.017L71.25 15.75L74.0705 23.5063C74.1783 23.8027 74.4599 24 74.7753 24H79.7247C80.0401 24 80.3217 23.8027 80.4295 23.5063Z" fill="#071220"/>
</svg>
