<svg width="32" height="32" viewBox="0 0 32 32" fill="none" xmlns="http://www.w3.org/2000/svg">
<path d="M32 13H26V9.93164L18.2959 17.6357L14.2363 13.5762L21.8125 6H19V0H32V13Z" fill="#51A933"/>
<path d="M16 5.98438C14.0191 5.98438 12.0826 6.57137 10.4355 7.67188C8.78842 8.77245 7.50418 10.3368 6.74609 12.167C5.98803 13.9972 5.79029 16.0112 6.17676 17.9541C6.56324 19.897 7.51724 21.6813 8.91797 23.082C10.3187 24.4828 12.103 25.4368 14.0459 25.8232C15.9888 26.2097 18.0028 26.012 19.833 25.2539C21.6632 24.4958 23.2276 23.2116 24.3281 21.5645C25.4286 19.9174 26.0156 17.9809 26.0156 16H32C32 19.1643 31.0616 22.2576 29.3037 24.8887C27.5456 27.5198 25.0466 29.5712 22.123 30.7822C19.1995 31.9932 15.9825 32.3097 12.8789 31.6924C10.7636 31.2716 8.76636 30.4285 7 29.2266V32H0V16L0.00195312 16.002C0.00171209 13.9102 0.409546 11.8282 1.21777 9.87695C2.42878 6.95335 4.48015 4.45438 7.11133 2.69629C9.74243 0.93836 12.8357 0 16 0V5.98438Z" fill="#071220"/>
</svg>
